# xmcd
# 
# Track frame offsets:
#     150
#     28864
#     53749
#     75549
# 
# Disc length: 1387
# 
# Revision: 0
# Processed by: cddbd v1.5.2PL0 Copyright (c) Steve Scherf et al.
# Submitted via: fre:ac v1.0.17
# 
DISCID=27056904
DTITLE=中島美嘉 - 僕が死のうと思ったのは
DYEAR=0
DGENRE=
TTITLE0=僕が死のうと思ったのは
TTITLE1=Today
TTITLE2=桜色舞うころ
TTITLE3=僕が死のうと思ったのは
EXTD=
EXTT0=
EXTT1=
EXTT2=
EXTT3=
PLAYORDER=
